<?xml version="1.0" standalone="no"?><!DOCTYPE svg PUBLIC "-//W3C//DTD SVG 1.1//EN" "http://www.w3.org/Graphics/SVG/1.1/DTD/svg11.dtd"><svg t="1533363203356" class="icon" style="" viewBox="0 0 1024 1024" version="1.1" xmlns="http://www.w3.org/2000/svg" p-id="1777" xmlns:xlink="http://www.w3.org/1999/xlink" width="200" height="200"><defs><style type="text/css"></style></defs><path d="M744.651222 894.214075H279.346731c-36.709063 0-66.471924-29.762861-66.471924-66.471924V262.72875c0-36.70804 29.762861-66.471924 66.471924-66.471924h49.854455v16.618493c0 45.886073 37.211507 83.089393 83.089393 83.089393h199.416795c45.877887 0 83.089393-37.20332 83.089394-83.089393v-16.618493h49.854454c36.709063 0 66.471924 29.763884 66.471925 66.471924v565.013401c0 36.709063-29.762861 66.471924-66.471925 66.471924zM678.179298 428.909583H345.818655c-18.355043 0-33.235962 14.881942-33.235962 33.235962s14.880919 33.235962 33.235962 33.235962H678.179298c18.355043 0 33.235962-14.880919 33.235962-33.235962s-14.880919-33.235962-33.235962-33.235962z m0 116.326379H345.818655c-18.355043 0-33.235962 14.881942-33.235962 33.235962s14.880919 33.235962 33.235962 33.235962H678.179298c18.355043 0 33.235962-14.880919 33.235962-33.235962s-14.880919-33.235962-33.235962-33.235962z m0 116.325355H345.818655c-18.355043 0-33.235962 14.881942-33.235962 33.235962s14.880919 33.235962 33.235962 33.235962H678.179298c18.355043 0 33.235962-14.881942 33.235962-33.235962s-14.880919-33.235962-33.235962-33.235962z m-99.707886-398.832567H445.527564c-36.709063 0-66.471924-29.762861-66.471924-66.471924 0-36.70804 29.762861-66.471924 66.471924-66.471924h132.943848c36.709063 0 66.471924 29.763884 66.471924 66.471924 0 36.709063-29.762861 66.471924-66.471924 66.471924z" p-id="1778" fill="#2c2c2c"></path></svg>