<?xml version="1.0" standalone="no"?><!DOCTYPE svg PUBLIC "-//W3C//DTD SVG 1.1//EN" "http://www.w3.org/Graphics/SVG/1.1/DTD/svg11.dtd"><svg t="1533367095518" class="icon" style="" viewBox="0 0 1024 1024" version="1.1" xmlns="http://www.w3.org/2000/svg" p-id="13939" xmlns:xlink="http://www.w3.org/1999/xlink" width="200" height="200"><defs><style type="text/css"></style></defs><path d="M486.4 512l59.733333 59.733333-59.733333 59.733334-59.733333-59.733334-59.733334 59.733334-59.733333-59.733334L366.933333 512l-59.733333-59.733333 59.733333-59.733334 59.733334 59.733334 59.733333-59.733334 59.733333 59.733334-59.733333 59.733333z m409.6-42.666667v298.666667h-89.6c-8.533333 25.6-34.133333 42.666667-59.733333 42.666667s-51.2-17.066667-59.733334-42.666667H337.066667c-8.533333 25.6-34.133333 42.666667-59.733334 42.666667s-51.2-17.066667-59.733333-42.666667H128V256h597.333333v128h85.333334l85.333333 85.333333zM213.333333 341.333333v341.333334h426.666667V341.333333H213.333333z m512 128v213.333334h85.333334v-170.666667l-42.666667-42.666667h-42.666667z" fill="#2c2c2c" p-id="13940"></path></svg>